<svg xmlns="http://www.w3.org/2000/svg" width="512" height="512" viewBox="0 0 512 512">
  <title>TorrServer AutoUpdate</title>
  <desc>Custom Home Assistant add-on icon</desc>
  <defs>
    <linearGradient id="bg" x1="0" y1="0" x2="1" y2="1">
      <stop offset="0" stop-color="#111827"/>
      <stop offset="1" stop-color="#1f2937"/>
    </linearGradient>
    <linearGradient id="accent" x1="0" y1="0" x2="1" y2="1">
      <stop offset="0" stop-color="#60a5fa"/>
      <stop offset="1" stop-color="#2563eb"/>
    </linearGradient>
  </defs>
  <rect x="16" y="16" width="480" height="480" rx="108" fill="url(#bg)"/>
  <g fill="none" stroke="#e5e7eb" stroke-width="22" stroke-linecap="round" stroke-linejoin="round">
    <rect x="106" y="128" width="300" height="92" rx="22"/>
    <rect x="106" y="292" width="300" height="92" rx="22"/>
    <path d="M143 174h4M143 338h4"/>
  </g>
  <circle cx="356" cy="174" r="13" fill="#60a5fa"/>
  <circle cx="356" cy="338" r="13" fill="#34d399"/>
  <circle cx="256" cy="256" r="78" fill="url(#accent)" stroke="#dbeafe" stroke-width="10"/>
  <path d="M237 219v74l63-37z" fill="#fff"/>
  <path d="M137 424c32 25 72 39 119 39 60 0 114-23 150-60" fill="none" stroke="#60a5fa" stroke-width="16" stroke-linecap="round"/>
  <path d="M392 384l14 20-24 3" fill="none" stroke="#60a5fa" stroke-width="16" stroke-linecap="round" stroke-linejoin="round"/>
</svg>
